<svg width="36" height="36" viewBox="0 0 36 36" fill="none" xmlns="http://www.w3.org/2000/svg">
<path d="M25.9838 8.20248C25.629 8.20248 25.2821 8.3077 24.9871 8.50484C24.692 8.70198 24.4621 8.98219 24.3263 9.31002C24.1905 9.63785 24.1549 9.99859 24.2242 10.3466C24.2934 10.6946 24.4643 11.0143 24.7152 11.2652C24.9661 11.5161 25.2858 11.687 25.6338 11.7562C25.9818 11.8255 26.3426 11.7899 26.6704 11.6541C26.9982 11.5184 27.2784 11.2884 27.4756 10.9934C27.6727 10.6983 27.7779 10.3514 27.7779 9.9966C27.7779 9.52077 27.5889 9.06443 27.2524 8.72797C26.916 8.3915 26.4596 8.20248 25.9838 8.20248ZM32.8613 11.8206C32.8322 10.5801 32.5999 9.35281 32.1735 8.18753C31.7934 7.1905 31.2017 6.28768 30.4392 5.54121C29.6989 4.77486 28.7939 4.18691 27.7929 3.82184C26.6307 3.38253 25.402 3.14488 24.1598 3.11915C22.575 3.02944 22.0667 3.02944 18 3.02944C13.9333 3.02944 13.425 3.02944 11.8402 3.11915C10.598 3.14488 9.3693 3.38253 8.2071 3.82184C7.20789 4.19061 6.30374 4.77805 5.56078 5.54121C4.79443 6.28155 4.20648 7.18647 3.84141 8.18753C3.40209 9.34973 3.16445 10.5784 3.13872 11.8206C3.04901 13.4054 3.04901 13.9138 3.04901 17.9804C3.04901 22.0471 3.04901 22.5554 3.13872 24.1402C3.16445 25.3824 3.40209 26.6111 3.84141 27.7733C4.20648 28.7744 4.79443 29.6793 5.56078 30.4196C6.30374 31.1828 7.20789 31.7702 8.2071 32.139C9.3693 32.5783 10.598 32.816 11.8402 32.8417C13.425 32.9314 13.9333 32.9314 18 32.9314C22.0667 32.9314 22.575 32.9314 24.1598 32.8417C25.402 32.816 26.6307 32.5783 27.7929 32.139C28.7939 31.7739 29.6989 31.186 30.4392 30.4196C31.2051 29.6759 31.7973 28.7723 32.1735 27.7733C32.5999 26.608 32.8322 25.3807 32.8613 24.1402C32.8613 22.5554 32.951 22.0471 32.951 17.9804C32.951 13.9138 32.951 13.4054 32.8613 11.8206ZM30.1701 23.9608C30.1592 24.9099 29.9873 25.8502 29.6618 26.7417C29.423 27.3924 29.0396 27.9803 28.5404 28.4611C28.0555 28.9552 27.4688 29.3378 26.8211 29.5824C25.9295 29.9079 24.9892 30.0798 24.0402 30.0907C22.5451 30.1655 21.9919 30.1804 18.0598 30.1804C14.1277 30.1804 13.5745 30.1804 12.0794 30.0907C11.094 30.1092 10.1127 29.9574 9.17891 29.6422C8.55962 29.3851 7.99981 29.0035 7.53431 28.5209C7.03807 28.0406 6.65944 27.4522 6.42793 26.8015C6.06291 25.8972 5.86046 24.9355 5.82989 23.9608C5.82989 22.4657 5.74019 21.9125 5.74019 17.9804C5.74019 14.0483 5.74019 13.4951 5.82989 12C5.8366 11.0298 6.01372 10.0683 6.35318 9.15934C6.61639 8.52828 7.02039 7.96574 7.53431 7.51474C7.98854 7.00067 8.54991 6.5924 9.17891 6.31866C10.0903 5.9898 11.0508 5.81792 12.0196 5.81032C13.5147 5.81032 14.0679 5.72062 18 5.72062C21.9321 5.72062 22.4853 5.72062 23.9804 5.81032C24.9294 5.82121 25.8697 5.99309 26.7613 6.31866C27.4407 6.57081 28.0505 6.98076 28.5404 7.51474C29.0304 7.974 29.4132 8.53549 29.6618 9.15934C29.994 10.0698 30.166 11.0309 30.1701 12C30.2448 13.4951 30.2598 14.0483 30.2598 17.9804C30.2598 21.9125 30.2448 22.4657 30.1701 23.9608ZM18 10.3106C16.4837 10.3135 15.0023 10.7659 13.7429 11.6104C12.4836 12.455 11.5029 13.6539 10.9246 15.0556C10.3464 16.4574 10.1967 17.9991 10.4943 19.4859C10.7919 20.9727 11.5236 22.3379 12.5968 23.4091C13.6701 24.4802 15.0367 25.2092 16.5241 25.504C18.0115 25.7987 19.5529 25.6459 20.9535 25.065C22.3541 24.484 23.5511 23.501 24.3932 22.24C25.2353 20.979 25.6848 19.4967 25.6848 17.9804C25.6868 16.9714 25.4892 15.9719 25.1036 15.0395C24.7179 14.1071 24.1517 13.2601 23.4375 12.5473C22.7233 11.8345 21.8752 11.2699 20.942 10.8861C20.0089 10.5022 19.009 10.3066 18 10.3106ZM18 22.9591C17.0153 22.9591 16.0527 22.6671 15.234 22.12C14.4152 21.573 13.7771 20.7954 13.4003 19.8857C13.0235 18.9759 12.9249 17.9749 13.117 17.0091C13.3091 16.0434 13.7833 15.1562 14.4795 14.46C15.1758 13.7637 16.0629 13.2895 17.0287 13.0974C17.9945 12.9053 18.9955 13.0039 19.9052 13.3807C20.815 13.7575 21.5925 14.3957 22.1396 15.2144C22.6867 16.0332 22.9787 16.9957 22.9787 17.9804C22.9787 18.6342 22.8499 19.2816 22.5997 19.8857C22.3495 20.4897 21.9828 21.0386 21.5204 21.5009C21.0581 21.9632 20.5093 22.3299 19.9052 22.5801C19.3012 22.8303 18.6538 22.9591 18 22.9591Z" fill="#210B01"/>
</svg>
